<mxfile host="app.diagrams.net" modified="2022-10-25T08:40:56.252Z" agent="5.0 (Windows NT 10.0; Win64; x64) AppleWebKit/537.36 (KHTML, like Gecko) Chrome/106.0.0.0 Safari/537.36 Edg/106.0.1370.52" etag="O5Ue6B7hvr3aEIUgj6Bd" version="20.3.7" type="github">
  <diagram id="C5RBs43oDa-KdzZeNtuy" name="Page-1">
    <mxGraphModel dx="2500" dy="945" grid="1" gridSize="10" guides="1" tooltips="1" connect="1" arrows="1" fold="1" page="1" pageScale="1" pageWidth="827" pageHeight="1169" math="0" shadow="0">
      <root>
        <mxCell id="WIyWlLk6GJQsqaUBKTNV-0" />
        <mxCell id="WIyWlLk6GJQsqaUBKTNV-1" parent="WIyWlLk6GJQsqaUBKTNV-0" />
        <mxCell id="3yZ3-9LjBpI8zoQUl_OY-42" style="edgeStyle=orthogonalEdgeStyle;rounded=0;orthogonalLoop=1;jettySize=auto;html=1;exitX=0.5;exitY=1;exitDx=0;exitDy=0;fontSize=18;" edge="1" parent="WIyWlLk6GJQsqaUBKTNV-1" source="3yZ3-9LjBpI8zoQUl_OY-35" target="3yZ3-9LjBpI8zoQUl_OY-38">
          <mxGeometry relative="1" as="geometry" />
        </mxCell>
        <mxCell id="3yZ3-9LjBpI8zoQUl_OY-43" style="edgeStyle=orthogonalEdgeStyle;rounded=0;orthogonalLoop=1;jettySize=auto;html=1;exitX=0.5;exitY=1;exitDx=0;exitDy=0;fontSize=18;" edge="1" parent="WIyWlLk6GJQsqaUBKTNV-1" source="3yZ3-9LjBpI8zoQUl_OY-35" target="3yZ3-9LjBpI8zoQUl_OY-39">
          <mxGeometry relative="1" as="geometry" />
        </mxCell>
        <mxCell id="3yZ3-9LjBpI8zoQUl_OY-44" style="edgeStyle=orthogonalEdgeStyle;rounded=0;orthogonalLoop=1;jettySize=auto;html=1;exitX=0.5;exitY=1;exitDx=0;exitDy=0;fontSize=18;" edge="1" parent="WIyWlLk6GJQsqaUBKTNV-1" source="3yZ3-9LjBpI8zoQUl_OY-35" target="3yZ3-9LjBpI8zoQUl_OY-40">
          <mxGeometry relative="1" as="geometry" />
        </mxCell>
        <mxCell id="3yZ3-9LjBpI8zoQUl_OY-45" style="edgeStyle=orthogonalEdgeStyle;rounded=0;orthogonalLoop=1;jettySize=auto;html=1;exitX=0.5;exitY=1;exitDx=0;exitDy=0;fontSize=18;" edge="1" parent="WIyWlLk6GJQsqaUBKTNV-1" source="3yZ3-9LjBpI8zoQUl_OY-35" target="3yZ3-9LjBpI8zoQUl_OY-41">
          <mxGeometry relative="1" as="geometry" />
        </mxCell>
        <mxCell id="3yZ3-9LjBpI8zoQUl_OY-46" style="edgeStyle=orthogonalEdgeStyle;rounded=0;orthogonalLoop=1;jettySize=auto;html=1;exitX=0.5;exitY=1;exitDx=0;exitDy=0;fontSize=18;" edge="1" parent="WIyWlLk6GJQsqaUBKTNV-1" source="3yZ3-9LjBpI8zoQUl_OY-35" target="3yZ3-9LjBpI8zoQUl_OY-36">
          <mxGeometry relative="1" as="geometry" />
        </mxCell>
        <mxCell id="3yZ3-9LjBpI8zoQUl_OY-35" value="SELECT c_id,first_name,last_name&amp;nbsp;FROM customer WHERE c_id=14;" style="rounded=1;whiteSpace=wrap;html=1;fontSize=18;" vertex="1" parent="WIyWlLk6GJQsqaUBKTNV-1">
          <mxGeometry x="95" y="120" width="670" height="40" as="geometry" />
        </mxCell>
        <mxCell id="3yZ3-9LjBpI8zoQUl_OY-36" value="SELECT" style="whiteSpace=wrap;html=1;fontSize=18;rounded=1;" vertex="1" parent="WIyWlLk6GJQsqaUBKTNV-1">
          <mxGeometry x="-150" y="250" width="120" height="60" as="geometry" />
        </mxCell>
        <mxCell id="3yZ3-9LjBpI8zoQUl_OY-52" style="edgeStyle=orthogonalEdgeStyle;rounded=0;orthogonalLoop=1;jettySize=auto;html=1;exitX=0.5;exitY=1;exitDx=0;exitDy=0;fontSize=18;" edge="1" parent="WIyWlLk6GJQsqaUBKTNV-1" source="3yZ3-9LjBpI8zoQUl_OY-38" target="3yZ3-9LjBpI8zoQUl_OY-49">
          <mxGeometry relative="1" as="geometry" />
        </mxCell>
        <mxCell id="3yZ3-9LjBpI8zoQUl_OY-53" style="edgeStyle=orthogonalEdgeStyle;rounded=0;orthogonalLoop=1;jettySize=auto;html=1;exitX=0.5;exitY=1;exitDx=0;exitDy=0;fontSize=18;" edge="1" parent="WIyWlLk6GJQsqaUBKTNV-1" source="3yZ3-9LjBpI8zoQUl_OY-38" target="3yZ3-9LjBpI8zoQUl_OY-50">
          <mxGeometry relative="1" as="geometry" />
        </mxCell>
        <mxCell id="3yZ3-9LjBpI8zoQUl_OY-54" style="edgeStyle=orthogonalEdgeStyle;rounded=0;orthogonalLoop=1;jettySize=auto;html=1;exitX=0.5;exitY=1;exitDx=0;exitDy=0;entryX=0.5;entryY=0;entryDx=0;entryDy=0;fontSize=18;" edge="1" parent="WIyWlLk6GJQsqaUBKTNV-1" source="3yZ3-9LjBpI8zoQUl_OY-38" target="3yZ3-9LjBpI8zoQUl_OY-48">
          <mxGeometry relative="1" as="geometry" />
        </mxCell>
        <mxCell id="3yZ3-9LjBpI8zoQUl_OY-38" value="FILEDS" style="whiteSpace=wrap;html=1;fontSize=18;rounded=1;" vertex="1" parent="WIyWlLk6GJQsqaUBKTNV-1">
          <mxGeometry x="190" y="250" width="120" height="60" as="geometry" />
        </mxCell>
        <mxCell id="3yZ3-9LjBpI8zoQUl_OY-56" value="" style="edgeStyle=orthogonalEdgeStyle;rounded=0;orthogonalLoop=1;jettySize=auto;html=1;fontSize=18;" edge="1" parent="WIyWlLk6GJQsqaUBKTNV-1" source="3yZ3-9LjBpI8zoQUl_OY-39" target="3yZ3-9LjBpI8zoQUl_OY-55">
          <mxGeometry relative="1" as="geometry" />
        </mxCell>
        <mxCell id="3yZ3-9LjBpI8zoQUl_OY-39" value="TABLES" style="whiteSpace=wrap;html=1;fontSize=18;rounded=1;" vertex="1" parent="WIyWlLk6GJQsqaUBKTNV-1">
          <mxGeometry x="520" y="250" width="120" height="60" as="geometry" />
        </mxCell>
        <mxCell id="3yZ3-9LjBpI8zoQUl_OY-40" value="WHERE" style="whiteSpace=wrap;html=1;fontSize=18;rounded=1;" vertex="1" parent="WIyWlLk6GJQsqaUBKTNV-1">
          <mxGeometry x="770" y="250" width="120" height="60" as="geometry" />
        </mxCell>
        <mxCell id="3yZ3-9LjBpI8zoQUl_OY-58" value="" style="edgeStyle=orthogonalEdgeStyle;rounded=0;orthogonalLoop=1;jettySize=auto;html=1;fontSize=18;" edge="1" parent="WIyWlLk6GJQsqaUBKTNV-1" source="3yZ3-9LjBpI8zoQUl_OY-41" target="3yZ3-9LjBpI8zoQUl_OY-57">
          <mxGeometry relative="1" as="geometry" />
        </mxCell>
        <mxCell id="3yZ3-9LjBpI8zoQUl_OY-41" value="CONDITIONS" style="whiteSpace=wrap;html=1;fontSize=18;rounded=1;" vertex="1" parent="WIyWlLk6GJQsqaUBKTNV-1">
          <mxGeometry x="1030" y="250" width="120" height="60" as="geometry" />
        </mxCell>
        <mxCell id="3yZ3-9LjBpI8zoQUl_OY-48" value="c_id" style="rounded=0;whiteSpace=wrap;html=1;fontSize=18;" vertex="1" parent="WIyWlLk6GJQsqaUBKTNV-1">
          <mxGeometry x="65" y="390" width="90" height="30" as="geometry" />
        </mxCell>
        <mxCell id="3yZ3-9LjBpI8zoQUl_OY-49" value="first_name" style="rounded=0;whiteSpace=wrap;html=1;fontSize=18;" vertex="1" parent="WIyWlLk6GJQsqaUBKTNV-1">
          <mxGeometry x="195" y="390" width="110" height="30" as="geometry" />
        </mxCell>
        <mxCell id="3yZ3-9LjBpI8zoQUl_OY-50" value="last_name" style="rounded=0;whiteSpace=wrap;html=1;fontSize=18;" vertex="1" parent="WIyWlLk6GJQsqaUBKTNV-1">
          <mxGeometry x="345" y="390" width="106" height="30" as="geometry" />
        </mxCell>
        <mxCell id="3yZ3-9LjBpI8zoQUl_OY-55" value="customer" style="whiteSpace=wrap;html=1;fontSize=18;rounded=1;" vertex="1" parent="WIyWlLk6GJQsqaUBKTNV-1">
          <mxGeometry x="520" y="350" width="120" height="60" as="geometry" />
        </mxCell>
        <mxCell id="3yZ3-9LjBpI8zoQUl_OY-63" style="edgeStyle=orthogonalEdgeStyle;rounded=0;orthogonalLoop=1;jettySize=auto;html=1;exitX=0.5;exitY=1;exitDx=0;exitDy=0;fontSize=18;" edge="1" parent="WIyWlLk6GJQsqaUBKTNV-1" source="3yZ3-9LjBpI8zoQUl_OY-57" target="3yZ3-9LjBpI8zoQUl_OY-59">
          <mxGeometry relative="1" as="geometry" />
        </mxCell>
        <mxCell id="3yZ3-9LjBpI8zoQUl_OY-64" style="edgeStyle=orthogonalEdgeStyle;rounded=0;orthogonalLoop=1;jettySize=auto;html=1;exitX=0.5;exitY=1;exitDx=0;exitDy=0;entryX=0.5;entryY=0;entryDx=0;entryDy=0;fontSize=18;" edge="1" parent="WIyWlLk6GJQsqaUBKTNV-1" source="3yZ3-9LjBpI8zoQUl_OY-57" target="3yZ3-9LjBpI8zoQUl_OY-61">
          <mxGeometry relative="1" as="geometry" />
        </mxCell>
        <mxCell id="3yZ3-9LjBpI8zoQUl_OY-57" value="=" style="whiteSpace=wrap;html=1;fontSize=18;rounded=1;" vertex="1" parent="WIyWlLk6GJQsqaUBKTNV-1">
          <mxGeometry x="1030" y="350" width="120" height="60" as="geometry" />
        </mxCell>
        <mxCell id="3yZ3-9LjBpI8zoQUl_OY-59" value="c_id" style="rounded=1;whiteSpace=wrap;html=1;fontSize=18;" vertex="1" parent="WIyWlLk6GJQsqaUBKTNV-1">
          <mxGeometry x="910" y="450" width="120" height="60" as="geometry" />
        </mxCell>
        <mxCell id="3yZ3-9LjBpI8zoQUl_OY-61" value="14" style="rounded=1;whiteSpace=wrap;html=1;fontSize=18;" vertex="1" parent="WIyWlLk6GJQsqaUBKTNV-1">
          <mxGeometry x="1150" y="450" width="120" height="60" as="geometry" />
        </mxCell>
      </root>
    </mxGraphModel>
  </diagram>
</mxfile>
